<?xml version="1.0" standalone="no"?>
<!DOCTYPE svg PUBLIC "-//W3C//DTD SVG 20010904//EN"
 "http://www.w3.org/TR/2001/REC-SVG-20010904/DTD/svg10.dtd">
<svg version="1.0" xmlns="http://www.w3.org/2000/svg"
 width="512.000000pt" height="466.000000pt" viewBox="0 0 512.000000 466.000000"
 preserveAspectRatio="xMidYMid meet">

<g transform="translate(0.000000,466.000000) scale(0.100000,-0.100000)"
fill="#000000" stroke="none">
<path d="M2350 4334 c-42 -36 -72 -98 -74 -155 l-1 -47 -45 -7 c-60 -9 -109
-31 -142 -62 -31 -29 -38 -59 -12 -49 9 3 21 6 28 6 7 0 12 10 12 22 -2 40
131 74 196 49 29 -11 82 -60 74 -68 -3 -4 -28 6 -54 20 -27 15 -52 24 -56 20
-14 -14 -4 -33 25 -49 25 -12 29 -18 18 -25 -8 -5 -26 -9 -41 -9 -15 0 -34 -7
-42 -16 -9 -8 -16 -12 -16 -7 0 4 -4 3 -8 -2 -4 -6 -19 -18 -34 -28 -16 -10
-28 -22 -28 -28 0 -6 5 -7 11 -3 7 4 21 8 33 9 11 1 25 3 30 4 4 0 6 8 2 16
-3 8 -1 15 4 15 6 0 12 0 15 0 3 0 5 -3 6 -7 0 -5 7 -12 15 -16 18 -10 18 -37
-1 -37 -9 0 -12 -6 -9 -15 7 -18 -12 -20 -20 -2 -4 6 -4 2 -2 -10 2 -14 0 -20
-9 -17 -7 3 -15 -2 -18 -10 -4 -9 -2 -16 4 -16 5 0 2 -11 -7 -25 -9 -14 -20
-22 -25 -19 -5 3 -6 -2 -3 -11 4 -11 2 -14 -9 -9 -10 3 -20 -2 -27 -15 -6 -12
-20 -21 -31 -21 -15 0 -19 -5 -15 -15 3 -8 1 -15 -4 -15 -6 0 -10 -6 -10 -13
0 -19 -33 -17 -47 3 -15 21 -64 24 -56 4 3 -7 8 -13 11 -12 4 0 14 0 22 -1 13
-1 13 -2 0 -11 -12 -8 -10 -10 10 -8 33 4 40 -34 10 -55 -14 -9 -17 -17 -11
-22 22 -13 -20 -39 -60 -38 -22 1 -39 -2 -39 -7 0 -5 6 -7 14 -4 8 3 17 1 21
-5 3 -6 2 -11 -4 -11 -6 0 -8 -7 -4 -16 5 -13 2 -15 -17 -9 -20 7 -22 5 -16
-18 3 -14 2 -29 -4 -32 -5 -3 -7 0 -5 8 4 10 -3 13 -25 11 -42 -3 -47 -10 -24
-36 22 -25 1 -16 -33 15 -13 11 -26 17 -30 14 -3 -4 0 -7 8 -7 12 0 11 -2 -1
-11 -12 -9 -11 -10 5 -4 16 5 17 4 8 -6 -8 -8 -16 -9 -25 -2 -7 5 -28 9 -45 7
-18 -1 -33 2 -33 7 0 5 4 9 9 9 5 0 7 9 4 21 -5 18 -11 13 -42 -35 -20 -31
-50 -65 -68 -76 -41 -24 -83 -114 -83 -178 l-1 -37 -15 28 c-32 58 19 183 92
226 34 20 74 84 61 98 -4 3 -18 -4 -32 -17 -34 -32 -32 -15 9 74 42 91 126
211 174 249 19 15 30 27 24 27 -7 0 -12 6 -12 14 0 19 33 76 44 76 5 0 16 8
25 18 9 9 29 24 44 32 16 8 24 16 19 18 -11 3 -76 -29 -102 -50 -30 -25 -60
-71 -60 -92 0 -17 -17 -31 -72 -61 -92 -49 -160 -112 -193 -178 -29 -58 -32
-102 -10 -153 l15 -36 -54 -82 c-30 -44 -71 -94 -91 -109 -49 -38 -37 -46 19
-13 l45 27 6 -26 c3 -14 7 -36 10 -49 3 -14 17 -38 31 -55 14 -17 27 -47 30
-68 10 -74 14 -83 34 -83 26 0 25 -19 -1 -75 -17 -35 -31 -49 -72 -69 l-52
-25 35 -1 c19 0 54 11 76 24 23 13 47 21 53 17 17 -11 -5 -72 -39 -108 -26
-28 -28 -33 -12 -33 10 0 37 16 59 35 23 19 48 35 56 35 20 0 33 -51 15 -61
-97 -55 -110 -90 -54 -148 19 -20 47 -65 62 -101 40 -95 57 -110 119 -110 52
0 52 0 68 -42 9 -24 18 -64 19 -90 2 -26 8 -50 15 -52 6 -3 9 -14 6 -25 -3
-13 -1 -21 7 -21 8 0 11 -9 8 -25 -4 -19 -1 -25 12 -25 14 0 16 -8 12 -49 -4
-43 -2 -49 17 -54 13 -3 21 -13 21 -26 0 -12 11 -30 24 -42 16 -14 22 -27 18
-45 l-4 -24 -684 0 c-429 0 -692 -4 -709 -10 -17 -7 -33 -26 -47 -57 -21 -47
-21 -53 -14 -620 7 -556 6 -574 -14 -652 -22 -86 -133 -415 -150 -443 -8 -15
-6 -18 12 -18 20 0 27 12 50 83 45 139 75 223 88 247 14 26 19 44 74 243 19
71 51 160 71 199 20 39 48 100 61 135 35 93 61 140 86 158 37 26 313 182 433
245 307 159 437 218 613 275 29 10 54 21 57 25 7 11 172 3 213 -11 21 -7 53
-11 72 -10 65 4 165 -18 178 -40 11 -18 9 -21 -18 -33 -17 -7 -28 -14 -26 -17
2 -2 -16 -2 -41 0 -26 2 -47 9 -50 17 -4 11 -9 12 -19 3 -8 -6 -44 -11 -81
-11 -59 0 -64 -2 -38 -11 17 -5 36 -15 43 -20 8 -6 32 -10 54 -8 27 2 38 -1
34 -8 -4 -6 -4 -11 1 -12 25 -2 58 -10 62 -16 3 -3 -4 -4 -16 -1 -26 7 -39
-17 -15 -28 9 -4 20 -7 23 -6 4 1 5 -7 2 -18 -3 -12 -10 -17 -21 -13 -10 4
-13 2 -8 -5 4 -7 -3 -17 -19 -24 -15 -7 -24 -17 -21 -25 4 -9 -5 -16 -24 -20
-16 -3 -27 -9 -24 -14 3 -5 0 -9 -5 -9 -6 0 -11 4 -11 9 0 10 -61 34 -68 26
-2 -2 7 -10 22 -16 28 -13 33 -24 15 -35 -8 -5 -8 -8 0 -14 9 -5 9 -14 1 -34
-5 -15 -8 -32 -4 -37 3 -5 -5 -8 -18 -6 -12 1 -23 -2 -23 -8 0 -5 -4 -16 -8
-23 -5 -7 -5 -11 0 -10 13 5 12 -15 -2 -36 -8 -10 -17 -16 -22 -13 -5 3 -15
-8 -22 -24 -10 -24 -17 -28 -37 -23 -15 4 -24 2 -24 -5 0 -6 7 -11 15 -11 8 0
15 -4 15 -10 0 -13 -27 -13 -35 0 -8 14 -35 1 -29 -15 3 -7 -2 -25 -12 -39
-14 -22 -14 -25 -1 -20 13 5 14 0 6 -33 -5 -21 -9 -55 -9 -75 0 -33 -3 -38
-22 -38 -23 -1 -23 -1 2 -16 14 -8 17 -13 8 -10 -22 7 -23 -1 -3 -21 10 -10
12 -19 6 -27 -5 -6 -7 -27 -5 -46 3 -24 1 -30 -5 -20 -6 8 -8 17 -5 21 2 4 -4
5 -15 2 -10 -3 -22 0 -25 5 -3 6 -15 8 -26 5 -14 -4 -20 0 -20 10 0 9 -9 21
-21 27 -19 11 -20 13 -4 30 15 16 15 18 0 24 -11 4 -15 2 -13 -6 6 -17 -37
-62 -51 -54 -20 13 -12 29 12 23 20 -6 21 -5 4 7 -15 12 -16 14 -2 20 8 3 15
12 15 20 0 9 6 13 14 10 7 -3 29 4 47 16 32 20 32 21 7 16 -14 -3 -34 -9 -43
-12 -14 -6 -15 -2 -10 28 6 34 6 35 -24 33 -16 -1 -28 2 -25 7 3 4 -1 8 -9 8
-10 0 -13 7 -10 20 4 16 0 20 -20 20 -34 0 -58 -10 -51 -21 3 -5 13 -9 23 -9
10 0 24 -7 31 -15 10 -12 9 -15 -4 -15 -10 0 -15 -4 -12 -8 2 -4 -4 -8 -15 -8
-13 0 -18 5 -14 15 4 10 2 11 -7 4 -14 -12 -47 -11 -66 1 -20 12 -14 -5 8 -24
12 -10 17 -21 11 -24 -5 -4 -12 -2 -16 4 -3 5 -15 10 -27 10 -11 0 -22 8 -25
20 -3 11 -12 20 -20 20 -8 0 -11 4 -8 10 3 6 -4 10 -17 10 -13 0 -29 5 -35 11
-7 7 -19 8 -30 4 -10 -5 -25 -7 -34 -6 -9 1 -19 -6 -23 -15 -5 -13 -2 -15 19
-10 19 5 23 3 19 -9 -4 -8 -10 -15 -15 -15 -12 0 -11 -44 1 -56 7 -7 5 -18 -8
-35 -19 -25 -50 -143 -57 -218 -5 -55 -16 -67 -40 -41 -10 11 -23 20 -28 20
-6 0 1 -13 16 -28 31 -32 36 -82 11 -106 -8 -9 -12 -16 -8 -16 20 0 -31 -39
-57 -42 -27 -4 -29 -2 -29 29 0 20 8 43 20 55 11 12 20 26 20 31 0 5 -9 -1
-20 -14 l-20 -24 1 65 c2 79 6 90 27 83 15 -5 15 -4 -1 8 -13 11 -16 24 -13
58 3 30 -1 49 -10 58 -21 21 -17 33 9 30 19 -2 22 2 21 31 -1 17 3 32 9 32 8
0 8 3 0 11 -14 14 -48 -14 -38 -31 3 -5 0 -7 -9 -4 -8 3 -17 12 -20 21 -4 8
-13 13 -21 9 -9 -3 -15 0 -15 10 0 8 -4 13 -9 10 -5 -3 -11 1 -15 9 -3 10 1
15 14 15 10 0 21 4 24 8 2 4 -10 8 -29 8 -32 0 -33 -1 -38 -50 -2 -28 -9 -52
-15 -54 -6 -2 -8 -10 -6 -17 3 -8 0 -47 -7 -87 -11 -69 -14 -147 -6 -230 2
-21 0 -38 -5 -38 -4 0 -2 -12 4 -26 9 -20 9 -30 0 -45 -7 -10 -12 -27 -12 -37
0 -15 -6 -17 -35 -14 -26 3 -35 9 -35 23 0 10 4 19 9 19 8 0 11 21 12 75 0 11
-3 44 -6 72 -4 29 -6 55 -6 58 0 3 -8 21 -19 40 -11 20 -20 41 -20 47 0 6 -12
22 -26 35 -15 13 -23 30 -20 38 4 10 -1 15 -15 15 -17 0 -18 -3 -9 -20 6 -11
8 -25 5 -30 -3 -6 -2 -10 3 -10 5 0 12 -9 15 -20 3 -11 1 -20 -4 -20 -5 0 0
-9 12 -21 11 -11 18 -23 15 -26 -15 -16 -35 15 -75 116 -44 111 -67 147 -36
54 26 -74 26 -83 5 -83 -14 0 -17 5 -13 21 6 21 5 21 -20 4 -21 -13 -24 -21
-18 -38 5 -12 6 -27 4 -34 -4 -11 53 -132 85 -181 9 -13 17 -39 19 -58 l4 -35
-25 16 c-20 14 -29 14 -48 4 -33 -17 -58 -49 -58 -73 -2 -57 -8 -136 -15 -179
l-8 -48 396 1 c294 1 397 4 401 13 3 9 5 9 5 0 1 -10 326 -13 1592 -13 1511 0
1591 1 1586 18 -7 22 -28 81 -38 107 -4 11 -11 36 -14 55 -9 45 -27 102 -37
115 -4 5 -8 18 -8 29 0 19 -6 40 -41 146 -10 30 -21 73 -25 94 -4 22 -13 51
-20 65 -8 14 -14 31 -14 37 0 23 -41 139 -58 164 -15 22 -17 68 -20 454 l-3
429 -26 34 c-14 19 -35 39 -45 44 -13 7 -237 10 -657 10 l-638 -2 -11 28 c-6
16 -12 66 -14 113 -3 82 -2 85 20 88 l22 3 -22 20 -23 20 32 -6 c28 -6 31 -4
26 14 -7 28 6 93 17 86 15 -9 22 14 10 35 -7 13 -7 20 0 20 5 0 10 -4 10 -10
0 -5 5 -10 11 -10 5 0 9 12 8 28 -4 50 1 58 45 79 24 12 56 37 70 55 34 45 76
138 83 185 8 52 19 63 63 63 34 0 37 2 32 25 -2 14 0 25 5 25 5 0 16 26 22 58
28 123 41 144 74 114 55 -51 136 -62 158 -20 10 18 9 18 -11 8 -16 -8 -30 -8
-55 0 -36 12 -71 50 -57 60 17 11 52 97 67 164 17 71 14 190 -6 258 -5 18 -9
52 -9 75 0 37 3 43 21 43 21 0 20 1 -4 20 -16 13 -29 36 -33 58 -17 96 -124
226 -241 292 -61 34 -61 35 -65 85 -3 27 -3 53 -1 56 1 4 20 2 42 -4 29 -8 46
-7 70 2 44 19 39 34 -9 26 -56 -9 -105 10 -137 53 -86 118 -152 162 -254 170
-56 4 -73 1 -122 -23 -31 -14 -79 -44 -107 -66 -56 -44 -64 -47 -55 -19 8 25
-20 74 -52 91 -18 9 -31 10 -51 3 -21 -8 -33 -7 -56 7 -33 20 -65 13 -103 -23
-21 -19 -24 -20 -46 -5 -22 14 -47 74 -47 114 0 10 13 31 28 46 32 31 72 35
116 12 36 -19 42 -19 25 1 -23 28 -67 44 -123 44 -44 0 -60 -5 -86 -26z m25
-34 c-20 -38 -19 -59 5 -122 11 -29 20 -54 20 -55 0 -9 -46 0 -72 13 -30 16
-30 17 -25 72 5 49 11 62 41 90 44 40 51 40 31 2z m208 -146 c9 -9 -16 -55
-42 -78 -23 -21 -37 -15 -43 20 -6 40 59 84 85 58z m519 -20 c45 -15 134 -81
124 -92 -3 -2 -11 0 -18 5 -34 27 -174 49 -280 45 -32 -2 -58 1 -58 6 0 17 94
51 141 52 25 0 66 -7 91 -16z m-417 -19 c0 -15 -8 -21 -32 -23 -27 -3 -33 0
-33 17 0 21 15 31 45 28 13 -1 20 -9 20 -22z m369 -111 c25 -14 49 -30 52 -36
6 -10 -81 37 -100 54 -18 15 1 8 48 -18z m129 -4 c69 -33 97 -64 97 -111 0
-45 2 -45 -72 8 -50 36 -108 123 -82 123 8 0 33 -9 57 -20z m303 -351 c51 -49
104 -132 92 -144 -9 -10 -78 38 -119 81 -45 48 -109 134 -109 146 0 17 84 -35
136 -83z m-1766 62 c0 -5 -15 -27 -34 -50 -19 -22 -50 -73 -70 -113 -45 -89
-61 -112 -75 -103 -16 9 -13 49 8 109 13 37 33 67 71 102 60 56 100 78 100 55z
m222 -273 c-7 -7 -12 -8 -12 -2 0 14 12 26 19 19 2 -3 -1 -11 -7 -17z m1646
-24 c28 -31 32 -64 5 -43 -25 20 -46 41 -63 63 -14 18 -13 18 10 12 14 -4 35
-19 48 -32z m-1603 -42 c-2 -2 -11 3 -20 12 -9 9 -21 14 -26 11 -10 -7 -12 8
-2 18 3 4 17 -3 30 -15 12 -12 21 -23 18 -26z m-240 18 c3 -5 -1 -10 -10 -10
-9 0 -13 5 -10 10 3 6 8 10 10 10 2 0 7 -4 10 -10z m35 -14 c0 -3 -4 -8 -10
-11 -5 -3 -10 -1 -10 4 0 6 5 11 10 11 6 0 10 -2 10 -4z m1802 -43 c15 -16 31
-40 37 -54 9 -26 14 -108 11 -184 l-2 -40 -10 45 c-20 98 -50 204 -64 231 -18
37 -6 37 28 2z m-2 -217 c0 -3 7 -37 15 -76 13 -63 13 -74 0 -101 -20 -37 -31
-37 -51 2 -14 28 -14 35 0 79 9 27 16 60 16 74 0 14 5 26 10 26 6 0 10 -2 10
-4z m-1771 -432 c28 -42 64 -113 81 -157 17 -45 40 -102 52 -126 19 -43 19
-45 2 -58 -10 -7 -23 -13 -29 -13 -7 0 -31 48 -55 107 -23 59 -64 150 -91 202
-54 105 -58 121 -30 121 13 0 36 -26 70 -76z m1648 39 c-3 -10 -5 -4 -5 12 0
17 2 24 5 18 2 -7 2 -21 0 -30z m-1557 -108 c-13 -15 -3 -25 26 -25 26 0 42
-29 16 -31 -14 -1 -14 -2 2 -6 11 -3 25 -11 31 -17 20 -19 46 -76 36 -76 -5 0
-11 3 -14 8 -2 4 -2 0 1 -8 3 -8 5 -23 6 -32 0 -10 4 -18 9 -18 5 0 7 -14 3
-32 l-6 -32 24 23 25 23 -6 -58 -6 -58 26 17 c14 9 28 17 29 17 2 0 3 -15 3
-32 0 -27 4 -34 23 -36 18 -3 22 -8 17 -20 -4 -9 -10 -25 -12 -34 -3 -10 -9
-18 -14 -18 -5 0 -9 -6 -9 -14 0 -12 7 -13 32 -5 50 14 55 12 50 -21 -2 -16 0
-30 6 -30 5 0 33 18 61 41 l52 41 -7 -41 c-5 -34 -4 -41 10 -41 9 0 20 8 23
17 7 19 48 63 58 63 3 0 3 -11 -1 -25 -4 -16 -2 -25 6 -25 7 0 10 -6 7 -14 -3
-8 1 -20 9 -26 11 -10 14 -9 14 7 0 28 20 45 37 32 14 -12 13 -14 34 66 l13
49 13 -32 c8 -20 20 -32 32 -32 11 0 23 -9 26 -20 7 -23 33 -27 41 -5 6 15 29
16 51 2 6 -4 13 -2 15 5 3 7 19 -8 36 -32 17 -25 39 -53 49 -63 17 -18 18 -17
23 35 4 40 9 54 23 56 11 2 17 -3 17 -13 0 -21 31 -75 43 -75 5 0 6 12 2 27
-5 22 -4 25 8 14 12 -9 16 -9 20 1 4 10 8 10 18 -2 8 -9 22 -22 31 -29 14 -11
16 -9 12 11 l-5 23 11 -23 c5 -13 15 -67 21 -120 15 -140 40 -209 100 -277 28
-32 49 -59 47 -60 -4 -4 -82 -14 -248 -31 -98 -10 -428 -12 -480 -3 -30 5 -84
11 -120 14 -36 2 -109 10 -162 17 l-98 12 35 28 c55 46 83 118 86 218 3 127 0
180 -11 180 -5 0 -10 -9 -10 -20 0 -14 -7 -20 -22 -21 -22 -1 -22 -1 2 -9 22
-7 22 -8 4 -9 -11 -1 -32 12 -47 28 -23 26 -24 30 -9 36 16 6 16 7 -1 17 -10
5 -25 7 -33 4 -12 -5 -15 1 -12 22 2 19 -4 33 -20 45 -16 14 -20 25 -16 43 5
19 2 24 -12 24 -9 0 -14 3 -11 7 4 3 2 11 -3 18 -7 8 -2 22 15 45 14 19 25 39
24 44 0 6 -3 5 -6 -3 -6 -15 -31 42 -40 92 -3 16 -13 45 -23 65 -10 20 -16 45
-15 55 2 9 0 15 -4 13 -9 -6 -31 37 -31 59 0 9 6 12 15 9 11 -5 13 -10 5 -19z
m1437 -37 c-3 -8 -6 -5 -6 6 -1 11 2 17 5 13 3 -3 4 -12 1 -19z m-1574 -3 c14
-14 77 -166 77 -186 0 -5 -13 -9 -29 -9 -21 0 -35 8 -48 28 -20 28 -73 155
-73 172 0 16 57 12 73 -5z m1571 -21 c-7 -3 -10 -13 -7 -22 2 -10 -3 -31 -11
-47 -9 -17 -16 -35 -16 -42 0 -6 -4 -15 -10 -18 -15 -9 -32 4 -23 18 4 7 6 24
4 39 -1 17 2 28 10 28 7 0 9 3 6 7 -10 9 23 43 42 42 9 0 11 -3 5 -5z m-60
-156 c-3 -4 -13 -8 -22 -8 -15 0 -15 -2 -2 -10 12 -8 10 -10 -8 -10 -14 0 -21
-4 -17 -11 4 -6 -2 -5 -13 2 -16 10 -18 16 -10 26 6 7 18 13 27 14 10 0 11 2
4 6 -27 10 -11 21 16 10 17 -6 28 -15 25 -19z m-1344 -752 c17 -3 -54 -37 -85
-41 -12 -1 -34 -10 -49 -21 -32 -20 -52 -21 -596 -26 l-255 -2 200 -6 c110 -3
277 -4 370 -2 168 3 187 -1 112 -27 -21 -7 -65 -28 -98 -47 -34 -19 -67 -34
-74 -34 -7 0 -15 -3 -17 -7 -3 -8 -10 -12 -241 -134 -82 -43 -160 -87 -175
-98 -37 -25 -204 -111 -218 -111 -7 0 -12 -10 -12 -22 0 -20 -66 -195 -78
-208 -4 -3 2 516 6 655 1 30 17 35 120 37 l95 1 -110 7 c-60 4 -111 8 -112 9
-2 0 -3 19 -3 41 l0 39 527 1 c289 0 528 1 529 3 4 3 142 -3 164 -7z m1878 5
l482 -1 0 -40 0 -40 -87 -1 c-54 -1 -78 -4 -63 -8 14 -4 38 -6 54 -4 16 2 45
-2 63 -9 l34 -12 -1 -91 c-1 -49 0 -94 1 -100 1 -5 2 -76 3 -157 1 -135 -3
-164 -18 -139 -13 21 -277 187 -436 275 -53 29 -60 36 -40 37 17 1 11 4 -17 9
-23 5 -60 20 -82 34 -22 14 -44 26 -48 26 -3 0 -14 6 -22 14 -9 8 -40 26 -68
41 -30 15 -53 34 -54 44 0 10 -2 11 -6 4 -7 -18 -23 -16 -23 3 0 9 -6 14 -13
11 -8 -3 -20 -1 -28 4 -9 6 116 8 328 7 187 -2 339 0 336 5 -2 4 -26 7 -52 7
-47 0 -48 0 -43 30 l4 30 -71 0 c-42 0 -70 -4 -66 -9 3 -5 0 -13 -6 -16 -5 -4
-8 -13 -5 -21 5 -12 -33 -14 -231 -14 l-235 0 -78 35 c-43 19 -84 35 -91 36
-32 1 23 14 58 13 21 -1 255 -2 521 -3z m129 -77 c-3 -3 -12 -4 -19 -1 -8 3
-5 6 6 6 11 1 17 -2 13 -5z m-1438 -32 c6 -11 6 -24 1 -32 -7 -12 -10 -12 -16
3 -3 9 -10 15 -14 12 -5 -3 -6 4 -3 15 7 25 19 26 32 2z m-67 -284 c-16 -16
-37 4 -28 28 6 16 8 16 23 1 13 -13 15 -19 5 -29z m75 -13 c0 -8 -4 -15 -8
-15 -11 0 -20 16 -12 24 11 11 20 7 20 -9z m-121 -33 c6 -4 8 -16 4 -26 -5
-16 -8 -17 -15 -5 -20 31 -14 48 11 31z m-26 -46 c0 -2 -7 -7 -16 -10 -8 -3
-12 -2 -9 4 6 10 25 14 25 6z m493 -41 c-7 -21 -12 -19 -10 4 0 11 5 18 9 15
4 -3 5 -11 1 -19z m53 0 c-1 -8 -6 -18 -10 -22 -4 -4 -6 -1 -4 7 2 8 -3 14
-10 12 -8 -1 -11 2 -7 8 10 15 34 12 31 -5z m62 0 c3 -3 -4 -4 -16 -2 -12 2
-24 6 -28 10 -4 3 4 4 16 2 12 -2 25 -7 28 -10z m-515 -23 c10 -10 14 -21 11
-25 -3 -3 1 -16 10 -29 20 -29 20 -62 0 -82 -32 -33 -73 -15 -83 35 -6 27 -3
37 13 50 18 15 19 19 6 34 -12 14 -12 18 1 26 20 12 24 11 42 -9z m422 -2 c-3
-5 -11 -10 -16 -10 -6 0 -7 5 -4 10 3 6 11 10 16 10 6 0 7 -4 4 -10z m109 -31
c-5 -9 -52 -5 -61 5 -4 4 9 6 29 4 20 -1 35 -5 32 -9z m-39 -27 c-3 -3 -11 0
-18 7 -9 10 -8 11 6 5 10 -3 15 -9 12 -12z m35 -2 c0 -5 -2 -10 -4 -10 -3 0
-8 5 -11 10 -3 6 -1 10 4 10 6 0 11 -4 11 -10z m-1292 -241 c11 -14 8 -18 -17
-27 -25 -9 -29 -8 -24 4 3 8 11 14 19 14 8 0 11 6 7 18 -7 18 -5 17 15 -9z
m-485 -54 c10 -14 14 -25 10 -25 -9 0 -43 36 -43 45 0 12 17 2 33 -20z m527
16 c0 -15 -16 -22 -35 -15 -13 5 -14 8 -3 15 18 12 38 11 38 0z m20 -42 c0 -5
-4 -9 -10 -9 -5 0 -10 6 -10 13 0 9 -3 8 -9 -2 -5 -8 -14 -10 -22 -6 -9 6 -8
10 7 15 21 8 44 2 44 -11z m184 -81 c-3 -5 -22 -7 -42 -7 -20 1 -29 3 -19 6 9
2 17 10 17 18 0 10 5 11 24 2 13 -7 22 -15 20 -19z m-348 -63 c-8 -8 -20 -15
-26 -15 -16 0 12 29 28 30 10 0 10 -4 -2 -15z m1464 -15 c0 -5 -4 -10 -10 -10
-5 0 -10 5 -10 10 0 6 5 10 10 10 6 0 10 -4 10 -10z m-1475 -38 c1 -12 -4 -22
-12 -22 -7 0 -13 4 -13 9 0 5 -9 13 -21 16 -11 4 -18 9 -16 12 3 2 14 0 26 -6
11 -7 22 -7 25 -2 4 5 1 12 -4 14 -6 3 -5 4 1 3 7 -1 13 -12 14 -24z m-700 -2
c-3 -5 -11 -10 -16 -10 -6 0 -7 5 -4 10 3 6 11 10 16 10 6 0 7 -4 4 -10z m817
3 c-6 -2 -10 -8 -8 -12 2 -3 1 -22 -4 -41 -5 -22 -8 -27 -9 -13 -1 15 -6 20
-19 16 -10 -2 -24 2 -31 10 -10 13 -7 18 16 30 15 8 37 15 48 15 11 0 14 -2 7
-5z m1408 -8 c0 -8 -6 -15 -14 -15 -8 0 -16 7 -20 15 -4 10 1 15 14 15 11 0
20 -7 20 -15z m-2215 -15 c-3 -5 -12 -10 -18 -10 -7 0 -6 4 3 10 19 12 23 12
15 0z m635 -10 c0 -5 -2 -10 -4 -10 -3 0 -8 5 -11 10 -3 6 -1 10 4 10 6 0 11
-4 11 -10z m120 -60 c0 -5 -2 -10 -4 -10 -3 0 -8 5 -11 10 -3 6 -1 10 4 10 6
0 11 -4 11 -10z m-6 -36 c30 -30 31 -38 13 -56 -8 -7 -12 -20 -9 -30 2 -10 0
-18 -5 -18 -5 0 -9 -12 -8 -27 0 -24 -4 -28 -30 -28 -19 0 -30 -5 -30 -14 0
-8 -6 -16 -12 -18 -7 -3 -13 0 -13 6 0 6 -8 11 -18 11 -10 0 -19 7 -19 15 0 8
3 13 5 10 3 -3 11 0 19 6 10 9 10 15 2 25 -8 10 -8 14 0 14 18 0 13 18 -6 23
-10 3 -1 4 19 2 42 -4 59 18 28 35 -19 10 -19 13 -5 40 19 37 35 38 69 4z
m-345 -119 c-16 -62 -18 -67 -29 -60 -8 5 -8 11 -1 19 6 7 8 16 4 19 -3 4 -2
7 4 7 5 0 10 7 10 16 0 9 -7 14 -17 11 -10 -2 -16 2 -16 13 0 9 6 17 13 17 7
0 10 -4 7 -9 -3 -4 2 -8 10 -8 10 0 13 6 9 18 -4 12 -3 14 5 7 8 -8 9 -22 1
-50z m215 19 c8 -22 8 -23 -9 -20 -19 3 -32 16 -16 16 7 0 9 5 6 10 -3 6 -2
10 3 10 6 0 13 -7 16 -16z m-629 -21 c11 -7 14 -13 8 -13 -7 0 -12 -6 -10 -12
1 -7 -5 -13 -13 -13 -8 0 -14 6 -12 14 3 12 0 12 -12 2 -9 -7 -23 -11 -32 -7
-12 5 -14 1 -9 -15 5 -16 3 -20 -6 -17 -17 6 -13 33 7 57 17 19 50 21 79 4z
m355 -25 c0 -19 -16 -5 -17 14 -2 18 0 20 7 8 5 -8 10 -18 10 -22z m247 -25
c-9 -2 -15 -8 -12 -13 3 -5 0 -12 -6 -16 -8 -4 -9 -3 -5 4 4 7 2 12 -3 12 -25
0 -9 16 17 17 15 0 19 -1 9 -4z m134 -3 c5 0 9 -4 9 -10 0 -14 -13 -12 -36 6
-17 14 -17 15 -1 10 10 -3 23 -6 28 -6z m-767 -16 c3 -8 2 -12 -4 -9 -6 3 -10
10 -10 16 0 14 7 11 14 -7z m396 0 c0 -8 -19 -13 -24 -6 -3 5 1 9 9 9 8 0 15
-2 15 -3z m376 -17 c3 -2 -2 -12 -11 -21 -9 -9 -13 -20 -10 -26 3 -5 1 -10 -4
-10 -6 0 -11 -9 -11 -19 0 -25 -19 -38 -19 -14 -2 55 -6 73 -15 74 -6 1 -15 2
-21 4 -5 1 -14 3 -18 3 -5 1 -5 6 -2 12 6 9 101 7 111 -3z m-765 -36 c-17 -13
-22 -24 -17 -37 5 -14 4 -16 -4 -8 -18 18 -1 64 24 64 21 0 20 -1 -3 -19z
m409 -1 c0 -5 -4 -10 -10 -10 -5 0 -10 5 -10 10 0 6 5 10 10 10 6 0 10 -4 10
-10z m-10 -50 c0 -5 -2 -10 -4 -10 -3 0 -8 5 -11 10 -3 6 -1 10 4 10 6 0 11
-4 11 -10z m-192 -64 c3 -12 -1 -17 -10 -14 -7 3 -15 13 -16 22 -3 12 1 17 10
14 7 -3 15 -13 16 -22z m427 -6 c18 -7 19 -8 3 -15 -22 -9 -51 1 -43 15 7 12
13 12 40 0z"/>
<path d="M1970 2410 c0 -5 5 -10 11 -10 5 0 8 -4 5 -8 -3 -5 1 -9 9 -9 13 0
12 4 -2 19 -18 21 -23 22 -23 8z"/>
<path d="M750 1606 c0 -21 21 -31 30 -15 5 7 6 17 4 21 -9 14 -34 9 -34 -6z"/>
<path d="M950 1605 c0 -8 9 -15 20 -15 11 0 20 7 20 15 0 8 -9 15 -20 15 -11
0 -20 -7 -20 -15z"/>
<path d="M1060 1605 c0 -8 7 -15 15 -15 8 0 15 7 15 15 0 8 -7 15 -15 15 -8 0
-15 -7 -15 -15z"/>
<path d="M1400 1603 c0 -7 7 -13 15 -13 8 0 15 6 15 13 0 8 -7 14 -15 14 -8 0
-15 -6 -15 -14z"/>
<path d="M1470 1611 c0 -6 4 -13 10 -16 6 -3 7 1 4 9 -7 18 -14 21 -14 7z"/>
<path d="M1550 1616 c0 -2 8 -10 18 -17 15 -13 16 -12 3 4 -13 16 -21 21 -21
13z"/>
<path d="M1250 1606 c0 -2 9 -6 20 -9 11 -3 18 -1 14 4 -5 9 -34 13 -34 5z"/>
<path d="M1316 1601 c-4 -5 3 -7 14 -4 23 6 26 13 6 13 -8 0 -17 -4 -20 -9z"/>
<path d="M1516 1598 c3 -5 10 -6 15 -3 13 9 11 12 -6 12 -8 0 -12 -4 -9 -9z"/>
<path d="M1113 1515 c0 -8 4 -12 9 -9 5 3 6 10 3 15 -9 13 -12 11 -12 -6z"/>
<path d="M926 1508 c3 -5 10 -6 15 -3 13 9 11 12 -6 12 -8 0 -12 -4 -9 -9z"/>
<path d="M1148 1513 c7 -3 16 -2 19 1 4 3 -2 6 -13 5 -11 0 -14 -3 -6 -6z"/>
<path d="M1294 1505 c11 -8 35 -15 53 -15 33 0 43 12 21 26 -7 4 -8 3 -4 -4 9
-15 -22 -16 -61 -2 -26 9 -27 9 -9 -5z"/>
<path d="M1426 1508 c5 -8 2 -9 -9 -5 -10 3 -17 2 -17 -4 0 -14 32 -7 38 9 2
6 -1 12 -8 12 -6 0 -8 -5 -4 -12z"/>
<path d="M790 1502 c0 -11 58 -14 64 -4 2 4 -11 8 -30 9 -19 2 -34 -1 -34 -5z"/>
<path d="M1059 1455 c-3 -2 -67 -5 -144 -6 -76 0 -132 -4 -125 -9 7 -4 51 -6
99 -4 47 2 119 5 159 6 43 0 68 4 60 9 -14 9 -42 12 -49 4z"/>
<path d="M780 1384 c0 -10 7 -14 22 -12 32 5 35 28 4 28 -17 0 -26 -5 -26 -16z"/>
<path d="M980 1380 c-13 -8 -12 -10 3 -10 9 0 17 5 17 10 0 12 -1 12 -20 0z"/>
<path d="M1173 1373 c15 -2 37 -2 50 0 12 2 0 4 -28 4 -27 0 -38 -2 -22 -4z"/>
<path d="M780 1325 c0 -12 7 -15 25 -13 14 2 26 8 26 13 0 6 -12 11 -26 13
-18 2 -25 -1 -25 -13z"/>
<path d="M787 1264 c-11 -12 3 -24 29 -24 15 0 24 6 24 15 0 15 -40 21 -53 9z"/>
<path d="M890 1260 c0 -6 7 -10 15 -10 8 0 15 2 15 4 0 2 -7 6 -15 10 -8 3
-15 1 -15 -4z"/>
<path d="M783 1198 c2 -7 14 -13 27 -13 13 0 25 6 28 13 2 8 -7 12 -28 12 -21
0 -30 -4 -27 -12z"/>
<path d="M787 1144 c-14 -14 -6 -24 19 -24 16 0 24 5 22 13 -5 14 -31 21 -41
11z"/>
<path d="M3404 1619 c-10 -17 13 -36 27 -22 12 12 4 33 -11 33 -5 0 -12 -5
-16 -11z"/>
<path d="M4107 1612 c-25 -27 -21 -32 24 -32 36 0 40 2 37 23 -4 28 -39 34
-61 9z"/>
<path d="M3550 1605 c0 -8 6 -15 14 -15 22 0 28 17 10 24 -22 9 -24 8 -24 -9z"/>
<path d="M3650 1610 c0 -14 26 -23 41 -15 8 6 7 10 -2 16 -19 12 -39 11 -39
-1z"/>
<path d="M3806 1613 c-11 -11 -6 -23 9 -23 8 0 15 4 15 9 0 13 -16 22 -24 14z"/>
<path d="M3640 1546 c0 -2 14 -6 30 -8 17 -3 30 -1 30 4 0 4 -13 8 -30 8 -16
0 -30 -2 -30 -4z"/>
<path d="M1955 3990 c-3 -6 1 -7 9 -4 18 7 21 14 7 14 -6 0 -13 -4 -16 -10z"/>
<path d="M2018 3993 c6 -2 18 -2 25 0 6 3 1 5 -13 5 -14 0 -19 -2 -12 -5z"/>
<path d="M1855 3980 c-13 -6 -2 -7 30 -3 28 3 52 7 54 9 9 8 -65 2 -84 -6z"/>
<path d="M1702 3919 c-30 -17 -52 -32 -49 -35 2 -2 30 11 62 31 72 43 61 47
-13 4z"/>
<path d="M2150 3880 c-5 -3 -1 -14 10 -23 25 -22 34 -22 26 0 -4 9 -1 20 6 24
8 5 5 8 -10 6 -13 -1 -27 -4 -32 -7z"/>
<path d="M2200 3860 c0 -5 5 -10 10 -10 6 0 10 5 10 10 0 6 -4 10 -10 10 -5 0
-10 -4 -10 -10z"/>
<path d="M1934 3671 l-21 -17 23 -11 c24 -11 34 0 13 13 -8 4 -7 9 2 15 7 4
11 10 9 13 -3 2 -14 -3 -26 -13z"/>
<path d="M1992 3618 c-13 -13 -16 -48 -4 -48 16 1 53 40 49 52 -4 10 -6 10 -6
-1 -1 -10 -4 -11 -14 -2 -10 8 -17 7 -25 -1z"/>
<path d="M1920 3610 c0 -5 4 -10 9 -10 6 0 13 5 16 10 3 6 -1 10 -9 10 -9 0
-16 -4 -16 -10z"/>
<path d="M1771 3564 c-1 -6 -12 -27 -25 -46 -15 -23 -19 -35 -10 -35 7 0 12 3
11 6 -1 3 5 16 13 28 11 17 17 19 27 11 8 -6 16 -8 20 -4 3 3 1 6 -6 6 -6 0
-16 10 -21 23 -5 12 -9 17 -9 11z"/>
<path d="M1827 3533 c-10 -9 -9 -23 1 -23 5 0 9 7 9 15 0 17 -1 18 -10 8z"/>
<path d="M1850 3534 c0 -9 40 -23 44 -15 3 5 -5 11 -19 13 -14 3 -25 4 -25 2z"/>
<path d="M1880 3491 c0 -6 4 -13 10 -16 6 -3 7 1 4 9 -7 18 -14 21 -14 7z"/>
<path d="M1771 3470 c-13 -11 -18 -20 -13 -20 6 0 13 4 16 9 4 5 17 8 31 6 14
-1 30 4 36 11 19 23 -42 17 -70 -6z"/>
<path d="M2023 1493 c-64 -22 -96 -41 -136 -78 -22 -20 -53 -42 -70 -50 l-32
-15 30 6 c17 3 40 16 52 29 28 29 109 86 120 84 4 -1 15 1 23 4 8 4 35 13 60
21 31 10 37 14 18 13 -15 -1 -44 -7 -65 -14z"/>
<path d="M2175 1460 c3 -5 10 -10 16 -10 5 0 9 5 9 10 0 6 -7 10 -16 10 -8 0
-12 -4 -9 -10z"/>
<path d="M2250 1441 c0 -5 9 -11 20 -14 24 -6 27 8 4 17 -21 8 -24 8 -24 -3z"/>
<path d="M2259 1389 c-11 -7 -10 -9 4 -9 10 0 16 -4 12 -9 -3 -5 -2 -12 3 -15
4 -2 13 4 19 14 10 15 9 19 -6 23 -11 2 -25 1 -32 -4z"/>
<path d="M2080 1386 c0 -2 8 -10 18 -17 15 -13 16 -12 3 4 -13 16 -21 21 -21
13z"/>
<path d="M1944 1357 c3 -16 0 -27 -6 -27 -6 0 -8 -3 -5 -7 4 -3 2 -12 -4 -20
-13 -15 -15 -14 34 -17 33 -3 37 -1 31 17 -4 11 -1 23 7 29 12 8 11 9 -1 6 -8
-3 -25 7 -38 21 l-23 25 5 -27z"/>
<path d="M1770 1338 c0 -7 -3 -30 -6 -50 -4 -21 -3 -38 3 -38 5 0 9 23 10 50
1 28 0 50 -2 50 -3 0 -5 -6 -5 -12z"/>
<path d="M2090 1330 c-8 -15 -8 -18 3 -14 8 3 14 11 14 19 0 20 -4 19 -17 -5z"/>
<path d="M2235 1320 c-3 -5 1 -10 9 -10 9 0 16 5 16 10 0 6 -4 10 -9 10 -6 0
-13 -4 -16 -10z"/>
<path d="M1996 1271 c-13 -14 -15 -24 -8 -36 8 -16 11 -15 26 6 9 14 12 25 6
27 -6 2 -8 8 -4 13 9 16 -2 10 -20 -10z"/>
<path d="M1700 1233 c-28 -10 -70 -57 -70 -77 1 -17 3 -15 14 9 14 31 42 52
86 66 19 6 20 7 5 7 -11 0 -27 -2 -35 -5z"/>
<path d="M1790 1225 c7 -8 20 -15 28 -15 13 0 12 3 -4 15 -25 19 -40 19 -24 0z"/>
<path d="M2070 1230 c-9 -6 -10 -10 -3 -10 6 0 15 5 18 10 8 12 4 12 -15 0z"/>
<path d="M2155 1231 c3 -5 -1 -12 -7 -14 -8 -4 -7 -6 4 -6 23 -1 32 15 12 23
-8 3 -13 2 -9 -3z"/>
<path d="M2070 1130 c0 -6 6 -10 13 -10 8 0 7 -4 -3 -11 -12 -9 -12 -10 -1 -7
21 6 25 24 6 31 -8 4 -15 2 -15 -3z"/>
<path d="M1587 1078 l-54 -53 51 44 c28 24 55 48 61 53 5 4 6 8 2 8 -3 0 -30
-24 -60 -52z"/>
<path d="M2043 1095 c0 -8 4 -12 9 -9 5 3 6 10 3 15 -9 13 -12 11 -12 -6z"/>
<path d="M1512 988 c-7 -7 -32 -11 -56 -9 -24 1 -46 -1 -49 -6 -3 -4 19 -8 48
-9 40 0 55 4 64 18 13 21 10 23 -7 6z"/>
<path d="M1716 968 c3 -5 10 -6 15 -3 13 9 11 12 -6 12 -8 0 -12 -4 -9 -9z"/>
<path d="M1370 945 c-7 -9 -11 -17 -9 -20 3 -2 10 5 17 15 14 24 10 26 -8 5z"/>
<path d="M1700 951 c0 -5 7 -12 16 -15 14 -5 15 -4 4 9 -14 17 -20 19 -20 6z"/>
<path d="M1836 948 c3 -5 10 -6 15 -3 13 9 11 12 -6 12 -8 0 -12 -4 -9 -9z"/>
<path d="M1550 920 c-13 -8 -13 -10 -1 -10 8 0 34 -10 58 -21 43 -21 61 -21
48 0 -3 6 -18 11 -32 11 -15 0 -34 7 -42 14 -11 10 -21 12 -31 6z"/>
<path d="M1895 910 c3 -5 8 -10 11 -10 2 0 4 5 4 10 0 6 -5 10 -11 10 -5 0 -7
-4 -4 -10z"/>
<path d="M1206 885 c-4 -10 1 -15 14 -15 13 0 18 5 14 15 -4 8 -10 15 -14 15
-4 0 -10 -7 -14 -15z"/>
<path d="M1190 849 c0 -5 5 -7 10 -4 6 3 10 8 10 11 0 2 -4 4 -10 4 -5 0 -10
-5 -10 -11z"/>
<path d="M1250 819 c0 -12 5 -16 14 -13 8 3 17 0 22 -7 5 -8 3 -10 -7 -4 -11
6 -12 5 -2 -5 10 -11 15 -11 27 -1 18 15 5 34 -31 43 -18 5 -23 2 -23 -13z"/>
<path d="M1860 760 c0 -9 -6 -22 -12 -30 -11 -12 -10 -12 4 -1 11 8 28 11 44
7 25 -7 25 -7 8 17 -21 27 -44 31 -44 7z"/>
<path d="M1230 369 c0 -5 11 -9 25 -9 14 0 25 2 25 4 0 2 -11 6 -25 8 -14 3
-25 1 -25 -3z"/>
<path d="M542 148 c6 -18 25 -20 31 -3 5 10 0 15 -14 15 -12 0 -19 -5 -17 -12z"/>
</g>
</svg>
